<?xml version="1.0" encoding="utf-8"?>
<!-- Generator: Adobe Illustrator 19.0.0, SVG Export Plug-In . SVG Version: 6.00 Build 0)  -->
<svg version="1.1" id="Layer_1" xmlns="http://www.w3.org/2000/svg" xmlns:xlink="http://www.w3.org/1999/xlink" x="0px" y="0px"
	 viewBox="0 0 825 250" style="enable-background:new 0 0 825 250;" xml:space="preserve">
<style type="text/css">
	.st0{fill:#1C28C4;}
	.st1{fill:#FFFFFF;}
	.st2{fill:#00EFE3;}
</style>
<g id="XMLID_274_">
	<rect id="XMLID_306_" x="0" class="st0" width="825" height="250"/>
	<path id="XMLID_292_" class="st1" d="M261.1,86.3V96c13.9,6.4,23.6,20.5,23.6,36.8c0,22.3-18.2,40.5-40.5,40.5
		s-40.5-18.2-40.5-40.5c0-16.3,9.7-30.4,23.6-36.8v-9.7c-19,6.9-32.6,25.2-32.6,46.5c0,27.3,22.2,49.5,49.5,49.5
		s49.5-22.2,49.5-49.5C293.8,111.4,280.1,93.2,261.1,86.3z"/>
	<path id="XMLID_402_" class="st2" d="M278.6,44.1l-0.2-3.4l-3.3-0.8c-0.7-0.2-16.3-3.6-26.1,4.6c-2,1.7-3.5,3.7-4.8,5.8
		c-1.2-2.1-2.8-4.1-4.8-5.8c-9.8-8.2-25.4-4.8-26.1-4.6l-3.3,0.8l-0.2,3.4c0,0.7-0.7,16.7,9.1,24.9c5.3,4.4,12.2,5.5,17.6,5.5
		c1.1,0,2.1,0,3.1-0.1v62.5h9V74.3c0.9,0.1,2,0.1,3.1,0.1c5.4,0,12.4-1,17.6-5.5C279.3,60.8,278.6,44.8,278.6,44.1z M224.8,62.1
		c-3.9-3.3-5.3-9.5-5.8-13.9c4.4-0.3,10.8,0,14.7,3.3s5.3,9.5,5.8,13.9C235.1,65.7,228.7,65.4,224.8,62.1z M263.7,62.1
		c-3.9,3.3-10.3,3.6-14.6,3.3c0.4-4,1.6-10.4,5.7-13.9c3.9-3.3,10.3-3.6,14.7-3.3C269.1,52.6,267.6,58.8,263.7,62.1z"/>
	<g id="XMLID_284_">
		<path id="XMLID_345_" class="st1" d="M126.1,182.3c-13.2,0-25.7-5.1-35-14.5c-9.3-9.3-14.5-21.8-14.5-35c0-13.2,5.1-25.7,14.5-35
			c9.3-9.3,21.8-14.5,35-14.5c13.2,0,25.7,5.1,35,14.5l-6.4,6.4c-7.6-7.6-17.8-11.9-28.6-11.9c-10.8,0-21,4.2-28.6,11.9
			S85.6,122,85.6,132.8s4.2,21,11.9,28.6c7.7,7.6,17.8,11.9,28.6,11.9s21-4.2,28.6-11.9l6.4,6.4
			C151.8,177.1,139.4,182.3,126.1,182.3z"/>
	</g>
	<polygon id="XMLID_288_" class="st1" points="513,92.8 513,83.8 447.6,83.8 447.6,181.8 513,181.8 513,172.8 456.6,172.8 
		456.6,137.3 513,137.3 513,128.3 456.6,128.3 456.6,92.8 	"/>
	<polygon id="XMLID_281_" class="st1" points="624,92.8 624,83.8 558.6,83.8 558.6,181.8 624,181.8 624,172.8 567.6,172.8 
		567.6,137.3 624,137.3 624,128.3 567.6,128.3 567.6,92.8 	"/>
	<g id="XMLID_277_">
		<path id="XMLID_320_" class="st1" d="M698.9,182.3h-31v-99h31c27.3,0,49.5,22.2,49.5,49.5S726.1,182.3,698.9,182.3z M676.8,173.3
			h22c22.3,0,40.5-18.2,40.5-40.5s-18.2-40.5-40.5-40.5h-22V173.3z"/>
	</g>
	<g id="XMLID_275_">
		<g id="XMLID_276_">
			<path id="XMLID_298_" class="st1" d="M369.4,184.3c-17.5,0-34.8-7.7-43.9-19.6l7.1-5.5c7.4,9.6,22.2,16.1,36.8,16.1
				c14.9,0,30-6.6,30-19.3c0-12.9-14.9-16.6-30.2-19.3c-1.1-0.2-2.2-0.4-3.1-0.6c-11.2-2.1-34.6-6.5-34.5-26.9
				c0.1-16,14.8-28,34.3-28c15.9,0,28.8,6.6,37.4,18.9l-7.4,5.1c-6.9-10-17-15.1-30-15.1c-14.2,0-25.3,8.4-25.3,19
				c0,10.7,10.8,14.9,27.1,18c0.9,0.2,1.9,0.4,3,0.5c13.2,2.3,37.6,6.6,37.6,28.1C408.4,174.6,388.8,184.3,369.4,184.3z"/>
		</g>
	</g>
</g>
</svg>

