<?xml version="1.0" encoding="utf-8"?>
<!-- Generator: Adobe Illustrator 19.0.0, SVG Export Plug-In . SVG Version: 6.00 Build 0)  -->
<svg version="1.1" id="Layer_1" xmlns="http://www.w3.org/2000/svg" xmlns:xlink="http://www.w3.org/1999/xlink" x="0px" y="0px"
	 viewBox="0 0 500 500" style="enable-background:new 0 0 500 500;" xml:space="preserve">
<style type="text/css">
	.st0{fill:#1C28C4;}
	.st1{fill:#FFFFFF;}
	.st2{fill:#00EFE3;}
</style>
<g id="XMLID_405_">
	<g id="XMLID_319_">
		<rect id="XMLID_404_" class="st0" width="500" height="500"/>
	</g>
	<g id="XMLID_309_">
		<path id="XMLID_308_" class="st1" d="M287.4,195.7v21.6c31,14.2,52.6,45.5,52.6,81.8c0,49.6-40.4,90-90,90s-90-40.4-90-90
			c0-36.3,21.6-67.6,52.6-81.8v-21.6C170.3,211,140,251.6,140,299.1c0,60.7,49.3,110,110,110s110-49.3,110-110
			C360,251.6,329.7,211,287.4,195.7z"/>
		<path id="XMLID_317_" class="st2" d="M326.3,102l-0.4-7.6l-7.4-1.7c-1.5-0.3-36.2-8-57.9,10.3c-4.4,3.7-7.9,8.1-10.6,12.8
			c-2.7-4.7-6.2-9.1-10.6-12.8c-21.8-18.3-56.5-10.6-57.9-10.3l-7.4,1.7l-0.4,7.6c-0.1,1.5-1.6,37,20.2,55.3
			c11.7,9.8,27.2,12.2,39.2,12.2c2.9,0,5.6-0.1,8-0.3V308h17.8V169.1c2.4,0.2,5.1,0.3,8,0.3c12,0,27.5-2.3,39.2-12.2
			C327.8,139,326.4,103.5,326.3,102z M206.8,142c-8.7-7.3-11.9-21.1-12.8-30.8c9-0.7,23.4-0.5,32.6,7.2c8.7,7.3,11.9,21.1,12.8,30.8
			C229.6,150,215.5,149.3,206.8,142z M293.2,142c-8.7,7.3-22.9,8-32.6,7.2c0.9-9.7,4.1-23.5,12.8-30.8c8.7-7.3,22.8-8,32.6-7.3
			C305.2,120.1,302.4,134.3,293.2,142z"/>
	</g>
</g>
</svg>

