<?xml version="1.0" encoding="utf-8"?>
<!-- Generator: Adobe Illustrator 19.1.0, SVG Export Plug-In . SVG Version: 6.00 Build 0)  -->
<svg version="1.1" id="Layer_1" xmlns="http://www.w3.org/2000/svg" xmlns:xlink="http://www.w3.org/1999/xlink" x="0px" y="0px"
	 viewBox="13 176 825 250" style="enable-background:new 13 176 825 250;" xml:space="preserve">
<style type="text/css">
	.st0{fill:#FFFFFF;}
	.st1{fill:#00EFE3;}
</style>
<g id="XMLID_274_">
	<path id="XMLID_292_" class="st0" d="M274.1,262.3v9.7c13.9,6.4,23.6,20.5,23.6,36.8c0,22.3-18.2,40.5-40.5,40.5
		s-40.5-18.2-40.5-40.5c0-16.3,9.7-30.4,23.6-36.8v-9.7c-19,6.9-32.6,25.2-32.6,46.5c0,27.3,22.2,49.5,49.5,49.5
		s49.5-22.2,49.5-49.5C306.8,287.4,293.1,269.2,274.1,262.3z"/>
	<path id="XMLID_402_" class="st1" d="M291.6,220.1l-0.2-3.4l-3.3-0.8c-0.7-0.2-16.3-3.6-26.1,4.6c-2,1.7-3.5,3.7-4.8,5.8
		c-1.2-2.1-2.8-4.1-4.8-5.8c-9.8-8.2-25.4-4.8-26.1-4.6l-3.3,0.8l-0.2,3.4c0,0.7-0.7,16.7,9.1,24.9c5.3,4.4,12.2,5.5,17.6,5.5
		c1.1,0,2.1,0,3.1-0.1v62.5h9v-62.6c0.9,0.1,2,0.1,3.1,0.1c5.4,0,12.4-1,17.6-5.5C292.3,236.8,291.6,220.8,291.6,220.1z
		 M237.8,238.1c-3.9-3.3-5.3-9.5-5.8-13.9c4.4-0.3,10.8,0,14.7,3.3c3.9,3.3,5.3,9.5,5.8,13.9C248.1,241.7,241.7,241.4,237.8,238.1z
		 M276.7,238.1c-3.9,3.3-10.3,3.6-14.6,3.3c0.4-4,1.6-10.4,5.7-13.9c3.9-3.3,10.3-3.6,14.7-3.3C282.1,228.6,280.6,234.8,276.7,238.1
		z"/>
	<g id="XMLID_284_">
		<path id="XMLID_345_" class="st0" d="M139.1,358.3c-13.2,0-25.7-5.1-35-14.5c-9.3-9.3-14.5-21.8-14.5-35c0-13.2,5.1-25.7,14.5-35
			c9.3-9.3,21.8-14.5,35-14.5c13.2,0,25.7,5.1,35,14.5l-6.4,6.4c-7.6-7.6-17.8-11.9-28.6-11.9c-10.8,0-21,4.2-28.6,11.9
			S98.6,298,98.6,308.8c0,10.8,4.2,21,11.9,28.6c7.7,7.6,17.8,11.9,28.6,11.9c10.8,0,21-4.2,28.6-11.9l6.4,6.4
			C164.8,353.1,152.4,358.3,139.1,358.3z"/>
	</g>
	<polygon id="XMLID_288_" class="st0" points="526,268.8 526,259.8 460.6,259.8 460.6,357.8 526,357.8 526,348.8 469.6,348.8 
		469.6,313.3 526,313.3 526,304.3 469.6,304.3 469.6,268.8 	"/>
	<polygon id="XMLID_281_" class="st0" points="637,268.8 637,259.8 571.6,259.8 571.6,357.8 637,357.8 637,348.8 580.6,348.8 
		580.6,313.3 637,313.3 637,304.3 580.6,304.3 580.6,268.8 	"/>
	<g id="XMLID_277_">
		<path id="XMLID_320_" class="st0" d="M711.9,358.3h-31v-99h31c27.3,0,49.5,22.2,49.5,49.5C761.4,336.1,739.1,358.3,711.9,358.3z
			 M689.8,349.3h22c22.3,0,40.5-18.2,40.5-40.5c0-22.3-18.2-40.5-40.5-40.5h-22V349.3z"/>
	</g>
	<g id="XMLID_275_">
		<g id="XMLID_276_">
			<path id="XMLID_298_" class="st0" d="M382.4,360.3c-17.5,0-34.8-7.7-43.9-19.6l7.1-5.5c7.4,9.6,22.2,16.1,36.8,16.1
				c14.9,0,30-6.6,30-19.3c0-12.9-14.9-16.6-30.2-19.3c-1.1-0.2-2.2-0.4-3.1-0.6c-11.2-2.1-34.6-6.5-34.5-26.9
				c0.1-16,14.8-28,34.3-28c15.9,0,28.8,6.6,37.4,18.9l-7.4,5.1c-6.9-10-17-15.1-30-15.1c-14.2,0-25.3,8.4-25.3,19
				c0,10.7,10.8,14.9,27.1,18c0.9,0.2,1.9,0.4,3,0.5c13.2,2.3,37.6,6.6,37.6,28.1C421.4,350.6,401.8,360.3,382.4,360.3z"/>
		</g>
	</g>
</g>
</svg>
