<?xml version="1.0" encoding="utf-8"?>
<!-- Generator: Adobe Illustrator 19.0.0, SVG Export Plug-In . SVG Version: 6.00 Build 0)  -->
<svg version="1.1" id="Layer_1" xmlns="http://www.w3.org/2000/svg" xmlns:xlink="http://www.w3.org/1999/xlink" x="0px" y="0px"
	 viewBox="0 0 825 250" style="enable-background:new 0 0 825 250;" xml:space="preserve">
<style type="text/css">
	.st0{fill:#1C28C4;}
	.st1{fill:#00EFE3;}
</style>
<g id="XMLID_278_">
	<path id="XMLID_295_" class="st0" d="M261.1,86v10.8c13.7,6.4,23.1,20.2,23.1,36.3c0,22.1-17.9,40-40,40s-40-17.9-40-40
		c0-16,9.5-29.9,23.1-36.3V86c-19.3,6.9-33.1,25.4-33.1,47.1c0,27.6,22.4,50,50,50s50-22.4,50-50C294.3,111.4,280.4,93,261.1,86z"/>
	<path id="XMLID_370_" class="st1" d="M279.1,44.4l-0.2-3.8l-3.7-0.8c-0.7-0.2-16.5-3.6-26.5,4.7c-1.8,1.5-3.3,3.3-4.4,5.2
		c-1.2-1.9-2.6-3.7-4.4-5.2c-10-8.4-25.8-4.9-26.5-4.7l-3.7,0.8l-0.2,3.8c0,0.7-0.7,16.9,9.3,25.3c5.4,4.5,12.5,5.6,18,5.6
		c0.9,0,1.8,0,2.6-0.1v61.9h10V75.2c0.8,0,1.7,0.1,2.6,0.1c5.5,0,12.6-1.1,18-5.6C279.8,61.3,279.1,45.1,279.1,44.4z M225.1,62
		c-3.6-3.1-5.1-8.8-5.5-13c4.3-0.3,10.1,0.1,13.8,3.2c3.6,3.1,5.1,8.8,5.5,13C234.7,65.5,228.8,65.1,225.1,62z M263.4,62
		c-3.6,3.1-9.5,3.5-13.8,3.2c0.4-4,1.7-9.8,5.5-13c3.6-3.1,9.5-3.5,13.8-3.2C268.5,52.9,267.2,58.8,263.4,62z"/>
	<path id="XMLID_367_" class="st0" d="M126.1,183.1c-13.4,0-25.9-5.2-35.4-14.6c-9.4-9.4-14.6-22-14.6-35.4
		c0-13.4,5.2-25.9,14.6-35.4c9.4-9.4,22-14.6,35.4-14.6s25.9,5.2,35.4,14.6l-7.1,7.1c-7.6-7.6-17.6-11.7-28.3-11.7
		s-20.7,4.2-28.3,11.7c-7.6,7.6-11.7,17.6-11.7,28.3c0,10.7,4.2,20.7,11.7,28.3c7.6,7.6,17.6,11.7,28.3,11.7
		c10.7,0,20.7-4.2,28.3-11.7l7.1,7.1C152.1,177.9,139.5,183.1,126.1,183.1z"/>
	<polygon id="XMLID_286_" class="st0" points="513,93.6 513,83.6 447.1,83.6 447.1,182.6 513,182.6 513,172.6 457.1,172.6 
		457.1,138.1 513,138.1 513,128.1 457.1,128.1 457.1,93.6 	"/>
	<polygon id="XMLID_287_" class="st0" points="624,93.6 624,83.6 558.1,83.6 558.1,182.6 624,182.6 624,172.6 568.1,172.6 
		568.1,138.1 624,138.1 624,128.1 568.1,128.1 568.1,93.6 	"/>
	<path id="XMLID_347_" class="st0" d="M698.9,183.1h-31.5v-100h31.5c27.6,0,50,22.4,50,50S726.4,183.1,698.9,183.1z M677.3,173.1
		h21.5c22.1,0,40-17.9,40-40s-17.9-40-40-40h-21.5V173.1z"/>
	<g id="XMLID_293_">
		<path id="XMLID_346_" class="st0" d="M369.4,185.1c-17.7,0-35.1-7.8-44.3-19.8l7.9-6.1c7.3,9.5,21.9,15.9,36.4,15.9
			c14.6,0,29.5-6.4,29.5-18.8c0-12.5-14.7-16.1-29.8-18.8c-1.1-0.2-2.2-0.4-3.2-0.6c-11.3-2.1-35-6.6-34.9-27.4
			c0.1-16,15.4-28.5,34.8-28.5c16,0,29.1,6.6,37.8,19.2l-8.2,5.7c-6.8-9.9-16.8-14.9-29.6-14.9c-13.9,0-24.8,8.1-24.8,18.5
			c0,10.4,10.2,14.4,26.7,17.5c0.9,0.2,1.9,0.4,3,0.5c13.3,2.3,38,6.7,38,28.6C408.9,175.2,389,185.1,369.4,185.1z"/>
	</g>
</g>
</svg>

